<?xml version="1.0" standalone="no"?>
<!DOCTYPE svg PUBLIC "-//W3C//DTD SVG 20010904//EN"
 "http://www.w3.org/TR/2001/REC-SVG-20010904/DTD/svg10.dtd">
<svg version="1.0" xmlns="http://www.w3.org/2000/svg"
 width="1280.000000pt" height="640.000000pt" viewBox="0 0 1280.000000 640.000000"
 preserveAspectRatio="xMidYMid meet">
<metadata>
Created by potrace 1.15, written by Peter Selinger 2001-2017
</metadata>
<g transform="translate(0.000000,640.000000) scale(0.100000,-0.100000)"
fill="#000000" stroke="none">
<path d="M1067 5909 c-106 -56 -101 -200 8 -253 73 -36 159 -21 214 38 36 39
41 119 9 165 -47 70 -151 92 -231 50z"/>
<path d="M1610 5621 c-76 -23 -148 -90 -170 -156 -44 -135 61 -280 212 -292
186 -15 315 165 234 326 -49 96 -176 152 -276 122z"/>
<path d="M956 5330 c-100 -40 -176 -146 -176 -246 0 -111 61 -203 167 -251 48
-22 65 -25 137 -21 94 5 141 26 197 85 59 61 74 98 74 183 0 57 -5 84 -22 115
-27 51 -75 97 -133 127 -62 32 -175 36 -244 8z"/>
<path d="M2090 4775 l0 -155 105 0 105 0 0 -690 0 -690 -174 0 c-162 0 -175 1
-181 19 -3 10 -14 26 -25 36 -19 17 -20 33 -20 429 l0 411 143 231 143 231
-239 6 c-289 8 -1177 9 -1177 2 0 -3 70 -108 155 -232 l155 -227 0 -427 c0
-367 -2 -428 -15 -439 -8 -7 -15 -19 -15 -26 0 -11 -16 -14 -65 -14 l-65 0 0
-74 c0 -71 -1 -74 -26 -80 -145 -37 -281 -295 -328 -626 -42 -289 -20 -610 57
-852 l24 -77 -323 -386 c-233 -277 -324 -393 -324 -410 l0 -25 138 0 c75 0
323 -2 551 -6 l415 -6 40 -32 c136 -110 329 -157 496 -122 272 57 464 285 448
533 l-4 63 68 0 68 0 0 -78 c0 -147 44 -256 145 -357 72 -72 126 -105 231
-142 67 -23 95 -27 189 -27 94 0 121 4 190 28 238 82 385 283 373 509 l-3 67
71 0 71 0 7 -41 c17 -105 67 -216 143 -316 129 -170 323 -278 546 -302 373
-42 713 173 837 529 31 88 39 275 16 373 -9 38 -16 70 -16 73 0 2 38 4 85 4
l85 0 0 -165 c0 -91 4 -165 8 -165 4 0 13 -41 20 -90 38 -277 268 -470 562
-470 313 0 570 238 570 527 l0 34 61 -3 61 -3 4 -60 c10 -136 63 -244 167
-341 310 -290 848 -148 951 250 12 46 14 99 9 272 l-6 214 95 0 95 0 6 -222
c8 -300 31 -374 156 -499 119 -118 272 -175 446 -166 290 15 509 211 533 477
l7 75 63 3 62 3 0 -53 c0 -122 50 -237 145 -334 108 -109 229 -163 390 -171
174 -9 327 48 446 166 125 125 148 199 156 499 l6 222 94 0 93 0 0 -142 c0
-220 14 -319 55 -406 59 -125 171 -225 313 -279 92 -35 242 -43 344 -18 239
57 427 270 428 483 l0 42 65 0 65 0 0 -48 c0 -112 56 -230 154 -327 227 -223
599 -221 827 5 68 67 103 125 135 220 17 51 18 116 22 923 l3 867 -1205 0
-1206 0 -2 -457 -3 -458 -90 0 -90 0 -3 448 -2 447 -1205 0 -1205 0 -2 -447
-3 -448 -90 0 -90 0 -3 448 -2 447 -1205 0 -1205 0 0 -450 0 -450 -115 0 -115
0 0 1380 0 1380 60 0 60 0 0 155 0 155 -1495 0 -1495 0 0 -155z"/>
</g>
</svg>
